<mxfile host="Electron" modified="2024-05-10T15:29:19.038Z" agent="Mozilla/5.0 (Windows NT 10.0; Win64; x64) AppleWebKit/537.36 (KHTML, like Gecko) draw.io/24.2.5 Chrome/120.0.6099.109 Electron/28.1.0 Safari/537.36" etag="HaaVcQTez5nyXdg-KZTP" version="24.2.5" type="device">
  <diagram id="C5RBs43oDa-KdzZeNtuy" name="Page-1">
    <mxGraphModel dx="1583" dy="908" grid="1" gridSize="10" guides="1" tooltips="1" connect="1" arrows="1" fold="1" page="1" pageScale="1" pageWidth="1169" pageHeight="827" math="0" shadow="0">
      <root>
        <mxCell id="WIyWlLk6GJQsqaUBKTNV-0" />
        <mxCell id="WIyWlLk6GJQsqaUBKTNV-1" parent="WIyWlLk6GJQsqaUBKTNV-0" />
        <mxCell id="1EVXWLcRG-oIRTYU0K3B-13" value="&lt;p style=&quot;line-height: 130%;&quot;&gt;&lt;br&gt;&lt;/p&gt;" style="html=1;dropTarget=0;whiteSpace=wrap;align=center;" parent="WIyWlLk6GJQsqaUBKTNV-1" vertex="1">
          <mxGeometry x="540" y="40" width="610" height="640" as="geometry" />
        </mxCell>
        <mxCell id="1EVXWLcRG-oIRTYU0K3B-14" value="" style="shape=module;jettyWidth=8;jettyHeight=4;" parent="1EVXWLcRG-oIRTYU0K3B-13" vertex="1">
          <mxGeometry x="1" width="20" height="20" relative="1" as="geometry">
            <mxPoint x="-27" y="7" as="offset" />
          </mxGeometry>
        </mxCell>
        <mxCell id="gELYl4KcZzuZvH43jFgR-50" style="edgeStyle=orthogonalEdgeStyle;rounded=0;orthogonalLoop=1;jettySize=auto;html=1;" edge="1" parent="WIyWlLk6GJQsqaUBKTNV-1" source="gELYl4KcZzuZvH43jFgR-43" target="gELYl4KcZzuZvH43jFgR-38">
          <mxGeometry relative="1" as="geometry">
            <Array as="points">
              <mxPoint x="790" y="185" />
              <mxPoint x="790" y="185" />
            </Array>
          </mxGeometry>
        </mxCell>
        <mxCell id="gELYl4KcZzuZvH43jFgR-56" style="edgeStyle=orthogonalEdgeStyle;rounded=0;orthogonalLoop=1;jettySize=auto;html=1;entryX=0.857;entryY=0.168;entryDx=0;entryDy=0;entryPerimeter=0;" edge="1" parent="WIyWlLk6GJQsqaUBKTNV-1" source="gELYl4KcZzuZvH43jFgR-43" target="gELYl4KcZzuZvH43jFgR-55">
          <mxGeometry relative="1" as="geometry">
            <Array as="points">
              <mxPoint x="1110" y="440" />
              <mxPoint x="1110" y="440" />
            </Array>
          </mxGeometry>
        </mxCell>
        <mxCell id="gELYl4KcZzuZvH43jFgR-43" value="" style="shape=folder;fontStyle=1;spacingTop=10;tabWidth=40;tabHeight=14;tabPosition=left;html=1;whiteSpace=wrap;labelBackgroundColor=none;" vertex="1" parent="WIyWlLk6GJQsqaUBKTNV-1">
          <mxGeometry x="800" y="118" width="330" height="272" as="geometry" />
        </mxCell>
        <mxCell id="1EVXWLcRG-oIRTYU0K3B-11" value="" style="html=1;dropTarget=0;whiteSpace=wrap;" parent="WIyWlLk6GJQsqaUBKTNV-1" vertex="1">
          <mxGeometry x="20" y="40" width="440" height="640" as="geometry" />
        </mxCell>
        <mxCell id="1EVXWLcRG-oIRTYU0K3B-12" value="" style="shape=module;jettyWidth=8;jettyHeight=4;" parent="1EVXWLcRG-oIRTYU0K3B-11" vertex="1">
          <mxGeometry x="1" width="20" height="20" relative="1" as="geometry">
            <mxPoint x="-27" y="7" as="offset" />
          </mxGeometry>
        </mxCell>
        <mxCell id="1EVXWLcRG-oIRTYU0K3B-17" value="&lt;span style=&quot;text-wrap: wrap;&quot;&gt;«Component»&lt;/span&gt;&lt;br style=&quot;text-wrap: wrap;&quot;&gt;&lt;b style=&quot;text-wrap: wrap;&quot;&gt;Frontend&lt;/b&gt;" style="text;html=1;align=center;verticalAlign=middle;resizable=0;points=[];autosize=1;strokeColor=none;fillColor=none;" parent="WIyWlLk6GJQsqaUBKTNV-1" vertex="1">
          <mxGeometry x="190" y="50" width="100" height="40" as="geometry" />
        </mxCell>
        <mxCell id="1EVXWLcRG-oIRTYU0K3B-18" value="&lt;span style=&quot;text-wrap: wrap;&quot;&gt;«Component»&lt;/span&gt;&lt;br style=&quot;text-wrap: wrap;&quot;&gt;&lt;b style=&quot;text-wrap: wrap;&quot;&gt;Backend&lt;/b&gt;" style="text;html=1;align=center;verticalAlign=middle;resizable=0;points=[];autosize=1;strokeColor=none;fillColor=none;" parent="WIyWlLk6GJQsqaUBKTNV-1" vertex="1">
          <mxGeometry x="795" y="50" width="100" height="40" as="geometry" />
        </mxCell>
        <mxCell id="1EVXWLcRG-oIRTYU0K3B-19" value="&lt;b&gt;&amp;lt;&amp;lt;interface&amp;gt;&amp;gt;&lt;/b&gt;&lt;div&gt;&lt;b&gt;IParser&lt;/b&gt;&lt;/div&gt;" style="swimlane;fontStyle=0;childLayout=stackLayout;horizontal=1;startSize=40;fillColor=none;horizontalStack=0;resizeParent=1;resizeParentMax=0;resizeLast=0;collapsible=1;marginBottom=0;whiteSpace=wrap;html=1;" parent="WIyWlLk6GJQsqaUBKTNV-1" vertex="1">
          <mxGeometry x="820" y="317" width="90" height="66" as="geometry" />
        </mxCell>
        <mxCell id="gELYl4KcZzuZvH43jFgR-26" value="+parse()" style="text;strokeColor=none;fillColor=none;align=left;verticalAlign=top;spacingLeft=4;spacingRight=4;overflow=hidden;rotatable=0;points=[[0,0.5],[1,0.5]];portConstraint=eastwest;whiteSpace=wrap;html=1;" vertex="1" parent="1EVXWLcRG-oIRTYU0K3B-19">
          <mxGeometry y="40" width="90" height="26" as="geometry" />
        </mxCell>
        <mxCell id="1EVXWLcRG-oIRTYU0K3B-23" value="" style="rounded=0;whiteSpace=wrap;html=1;" parent="WIyWlLk6GJQsqaUBKTNV-1" vertex="1">
          <mxGeometry x="450" y="465" width="20" height="20" as="geometry" />
        </mxCell>
        <mxCell id="1EVXWLcRG-oIRTYU0K3B-24" value="" style="rounded=0;whiteSpace=wrap;html=1;" parent="WIyWlLk6GJQsqaUBKTNV-1" vertex="1">
          <mxGeometry x="530" y="465" width="20" height="20" as="geometry" />
        </mxCell>
        <mxCell id="1EVXWLcRG-oIRTYU0K3B-25" value="" style="rounded=0;orthogonalLoop=1;jettySize=auto;html=1;endArrow=halfCircle;endFill=0;endSize=6;strokeWidth=1;sketch=0;exitX=1;exitY=0.5;exitDx=0;exitDy=0;" parent="WIyWlLk6GJQsqaUBKTNV-1" source="1EVXWLcRG-oIRTYU0K3B-23" target="1EVXWLcRG-oIRTYU0K3B-27" edge="1">
          <mxGeometry relative="1" as="geometry">
            <mxPoint x="710" y="-40" as="sourcePoint" />
          </mxGeometry>
        </mxCell>
        <mxCell id="1EVXWLcRG-oIRTYU0K3B-26" value="" style="rounded=0;orthogonalLoop=1;jettySize=auto;html=1;endArrow=oval;endFill=0;sketch=0;sourcePerimeterSpacing=0;targetPerimeterSpacing=0;endSize=10;exitX=0;exitY=0.5;exitDx=0;exitDy=0;" parent="WIyWlLk6GJQsqaUBKTNV-1" source="1EVXWLcRG-oIRTYU0K3B-24" target="1EVXWLcRG-oIRTYU0K3B-27" edge="1">
          <mxGeometry relative="1" as="geometry">
            <mxPoint x="670" y="-40" as="sourcePoint" />
          </mxGeometry>
        </mxCell>
        <mxCell id="1EVXWLcRG-oIRTYU0K3B-27" value="" style="ellipse;whiteSpace=wrap;html=1;align=center;aspect=fixed;fillColor=none;strokeColor=none;resizable=0;perimeter=centerPerimeter;rotatable=0;allowArrows=0;points=[];outlineConnect=1;" parent="WIyWlLk6GJQsqaUBKTNV-1" vertex="1">
          <mxGeometry x="500" y="470" width="10" height="10" as="geometry" />
        </mxCell>
        <mxCell id="1EVXWLcRG-oIRTYU0K3B-40" value="REST&lt;br&gt;API" style="text;html=1;align=center;verticalAlign=middle;resizable=0;points=[];autosize=1;strokeColor=none;fillColor=none;" parent="WIyWlLk6GJQsqaUBKTNV-1" vertex="1">
          <mxGeometry x="475" y="414" width="60" height="40" as="geometry" />
        </mxCell>
        <mxCell id="1EVXWLcRG-oIRTYU0K3B-59" value="&lt;b&gt;App&lt;/b&gt;" style="swimlane;fontStyle=0;childLayout=stackLayout;horizontal=1;startSize=26;fillColor=none;horizontalStack=0;resizeParent=1;resizeParentMax=0;resizeLast=0;collapsible=1;marginBottom=0;whiteSpace=wrap;html=1;" parent="WIyWlLk6GJQsqaUBKTNV-1" vertex="1">
          <mxGeometry x="60" y="482" width="140" height="108" as="geometry" />
        </mxCell>
        <mxCell id="1EVXWLcRG-oIRTYU0K3B-83" style="edgeStyle=orthogonalEdgeStyle;rounded=0;orthogonalLoop=1;jettySize=auto;html=1;entryX=0.5;entryY=0.17;entryDx=0;entryDy=0;entryPerimeter=0;" parent="WIyWlLk6GJQsqaUBKTNV-1" source="1EVXWLcRG-oIRTYU0K3B-72" target="1EVXWLcRG-oIRTYU0K3B-79" edge="1">
          <mxGeometry relative="1" as="geometry" />
        </mxCell>
        <mxCell id="1EVXWLcRG-oIRTYU0K3B-72" value="Views" style="shape=folder;fontStyle=1;spacingTop=10;tabWidth=40;tabHeight=14;tabPosition=left;html=1;whiteSpace=wrap;" parent="WIyWlLk6GJQsqaUBKTNV-1" vertex="1">
          <mxGeometry x="60" y="140" width="140" height="90" as="geometry" />
        </mxCell>
        <mxCell id="1EVXWLcRG-oIRTYU0K3B-89" style="edgeStyle=orthogonalEdgeStyle;rounded=0;orthogonalLoop=1;jettySize=auto;html=1;" parent="WIyWlLk6GJQsqaUBKTNV-1" source="1EVXWLcRG-oIRTYU0K3B-73" target="1EVXWLcRG-oIRTYU0K3B-88" edge="1">
          <mxGeometry relative="1" as="geometry" />
        </mxCell>
        <mxCell id="gELYl4KcZzuZvH43jFgR-7" style="edgeStyle=orthogonalEdgeStyle;rounded=0;orthogonalLoop=1;jettySize=auto;html=1;entryX=0;entryY=0.5;entryDx=0;entryDy=0;startArrow=classic;startFill=1;" edge="1" parent="WIyWlLk6GJQsqaUBKTNV-1" source="gELYl4KcZzuZvH43jFgR-9" target="1EVXWLcRG-oIRTYU0K3B-23">
          <mxGeometry relative="1" as="geometry" />
        </mxCell>
        <mxCell id="1EVXWLcRG-oIRTYU0K3B-73" value="&lt;b&gt;&amp;lt;&amp;lt;interface&amp;gt;&amp;gt;&lt;/b&gt;&lt;div&gt;&lt;b&gt;IAPI-Client&lt;/b&gt;&lt;/div&gt;" style="swimlane;fontStyle=0;childLayout=stackLayout;horizontal=1;startSize=40;fillColor=none;horizontalStack=0;resizeParent=1;resizeParentMax=0;resizeLast=0;collapsible=1;marginBottom=0;whiteSpace=wrap;html=1;" parent="WIyWlLk6GJQsqaUBKTNV-1" vertex="1">
          <mxGeometry x="260" y="390" width="140" height="170" as="geometry" />
        </mxCell>
        <mxCell id="1EVXWLcRG-oIRTYU0K3B-75" value="+ AddTitle()" style="text;strokeColor=none;fillColor=none;align=left;verticalAlign=top;spacingLeft=4;spacingRight=4;overflow=hidden;rotatable=0;points=[[0,0.5],[1,0.5]];portConstraint=eastwest;whiteSpace=wrap;html=1;" parent="1EVXWLcRG-oIRTYU0K3B-73" vertex="1">
          <mxGeometry y="40" width="140" height="26" as="geometry" />
        </mxCell>
        <mxCell id="gELYl4KcZzuZvH43jFgR-4" value="+&amp;nbsp;GetTitles()" style="text;strokeColor=none;fillColor=none;align=left;verticalAlign=top;spacingLeft=4;spacingRight=4;overflow=hidden;rotatable=0;points=[[0,0.5],[1,0.5]];portConstraint=eastwest;whiteSpace=wrap;html=1;" vertex="1" parent="1EVXWLcRG-oIRTYU0K3B-73">
          <mxGeometry y="66" width="140" height="26" as="geometry" />
        </mxCell>
        <mxCell id="1EVXWLcRG-oIRTYU0K3B-74" value="+&amp;nbsp;Parse()" style="text;strokeColor=none;fillColor=none;align=left;verticalAlign=top;spacingLeft=4;spacingRight=4;overflow=hidden;rotatable=0;points=[[0,0.5],[1,0.5]];portConstraint=eastwest;whiteSpace=wrap;html=1;" parent="1EVXWLcRG-oIRTYU0K3B-73" vertex="1">
          <mxGeometry y="92" width="140" height="26" as="geometry" />
        </mxCell>
        <mxCell id="gELYl4KcZzuZvH43jFgR-5" value="+&amp;nbsp;RemoveTitle()" style="text;strokeColor=none;fillColor=none;align=left;verticalAlign=top;spacingLeft=4;spacingRight=4;overflow=hidden;rotatable=0;points=[[0,0.5],[1,0.5]];portConstraint=eastwest;whiteSpace=wrap;html=1;" vertex="1" parent="1EVXWLcRG-oIRTYU0K3B-73">
          <mxGeometry y="118" width="140" height="26" as="geometry" />
        </mxCell>
        <mxCell id="gELYl4KcZzuZvH43jFgR-6" value="+SaveParsedElement()" style="text;strokeColor=none;fillColor=none;align=left;verticalAlign=top;spacingLeft=4;spacingRight=4;overflow=hidden;rotatable=0;points=[[0,0.5],[1,0.5]];portConstraint=eastwest;whiteSpace=wrap;html=1;" vertex="1" parent="1EVXWLcRG-oIRTYU0K3B-73">
          <mxGeometry y="144" width="140" height="26" as="geometry" />
        </mxCell>
        <mxCell id="gELYl4KcZzuZvH43jFgR-2" style="edgeStyle=orthogonalEdgeStyle;rounded=0;orthogonalLoop=1;jettySize=auto;html=1;entryX=0;entryY=0.5;entryDx=0;entryDy=0;" edge="1" parent="WIyWlLk6GJQsqaUBKTNV-1" source="1EVXWLcRG-oIRTYU0K3B-79" target="1EVXWLcRG-oIRTYU0K3B-75">
          <mxGeometry relative="1" as="geometry" />
        </mxCell>
        <mxCell id="1EVXWLcRG-oIRTYU0K3B-79" value="ViewModels" style="shape=folder;fontStyle=1;spacingTop=10;tabWidth=40;tabHeight=14;tabPosition=left;html=1;whiteSpace=wrap;" parent="WIyWlLk6GJQsqaUBKTNV-1" vertex="1">
          <mxGeometry x="60" y="260" width="140" height="90" as="geometry" />
        </mxCell>
        <mxCell id="1EVXWLcRG-oIRTYU0K3B-86" style="edgeStyle=orthogonalEdgeStyle;rounded=0;orthogonalLoop=1;jettySize=auto;html=1;entryX=0.25;entryY=1;entryDx=0;entryDy=0;entryPerimeter=0;exitX=0.25;exitY=0;exitDx=0;exitDy=0;" parent="WIyWlLk6GJQsqaUBKTNV-1" source="1EVXWLcRG-oIRTYU0K3B-59" target="1EVXWLcRG-oIRTYU0K3B-79" edge="1">
          <mxGeometry relative="1" as="geometry">
            <mxPoint x="95" y="470" as="targetPoint" />
          </mxGeometry>
        </mxCell>
        <mxCell id="1EVXWLcRG-oIRTYU0K3B-88" value="DTOs" style="shape=folder;fontStyle=1;spacingTop=10;tabWidth=40;tabHeight=14;tabPosition=left;html=1;whiteSpace=wrap;" parent="WIyWlLk6GJQsqaUBKTNV-1" vertex="1">
          <mxGeometry x="260" y="260" width="140" height="90" as="geometry" />
        </mxCell>
        <mxCell id="1EVXWLcRG-oIRTYU0K3B-90" style="edgeStyle=orthogonalEdgeStyle;rounded=0;orthogonalLoop=1;jettySize=auto;html=1;entryX=0;entryY=0;entryDx=0;entryDy=52;entryPerimeter=0;exitX=0;exitY=0;exitDx=140;exitDy=52;exitPerimeter=0;" parent="WIyWlLk6GJQsqaUBKTNV-1" source="1EVXWLcRG-oIRTYU0K3B-79" target="1EVXWLcRG-oIRTYU0K3B-88" edge="1">
          <mxGeometry relative="1" as="geometry">
            <mxPoint x="200" y="451" as="sourcePoint" />
          </mxGeometry>
        </mxCell>
        <mxCell id="gELYl4KcZzuZvH43jFgR-60" style="edgeStyle=orthogonalEdgeStyle;rounded=0;orthogonalLoop=1;jettySize=auto;html=1;startArrow=classic;startFill=1;" edge="1" parent="WIyWlLk6GJQsqaUBKTNV-1" source="1EVXWLcRG-oIRTYU0K3B-92" target="1EVXWLcRG-oIRTYU0K3B-24">
          <mxGeometry relative="1" as="geometry" />
        </mxCell>
        <mxCell id="1EVXWLcRG-oIRTYU0K3B-92" value="&lt;b&gt;&amp;lt;&amp;lt;interface&amp;gt;&amp;gt;&lt;/b&gt;&lt;div&gt;&lt;b&gt;APIService&lt;/b&gt;&lt;/div&gt;" style="swimlane;fontStyle=0;childLayout=stackLayout;horizontal=1;startSize=40;fillColor=none;horizontalStack=0;resizeParent=1;resizeParentMax=0;resizeLast=0;collapsible=1;marginBottom=0;whiteSpace=wrap;html=1;" parent="WIyWlLk6GJQsqaUBKTNV-1" vertex="1">
          <mxGeometry x="605" y="377" width="140" height="196" as="geometry" />
        </mxCell>
        <mxCell id="gELYl4KcZzuZvH43jFgR-61" value="+ parse()" style="text;strokeColor=none;fillColor=none;align=left;verticalAlign=top;spacingLeft=4;spacingRight=4;overflow=hidden;rotatable=0;points=[[0,0.5],[1,0.5]];portConstraint=eastwest;whiteSpace=wrap;html=1;" vertex="1" parent="1EVXWLcRG-oIRTYU0K3B-92">
          <mxGeometry y="40" width="140" height="26" as="geometry" />
        </mxCell>
        <mxCell id="gELYl4KcZzuZvH43jFgR-62" value="+ getTitles()" style="text;strokeColor=none;fillColor=none;align=left;verticalAlign=top;spacingLeft=4;spacingRight=4;overflow=hidden;rotatable=0;points=[[0,0.5],[1,0.5]];portConstraint=eastwest;whiteSpace=wrap;html=1;" vertex="1" parent="1EVXWLcRG-oIRTYU0K3B-92">
          <mxGeometry y="66" width="140" height="26" as="geometry" />
        </mxCell>
        <mxCell id="gELYl4KcZzuZvH43jFgR-63" value="+ addTitle()" style="text;strokeColor=none;fillColor=none;align=left;verticalAlign=top;spacingLeft=4;spacingRight=4;overflow=hidden;rotatable=0;points=[[0,0.5],[1,0.5]];portConstraint=eastwest;whiteSpace=wrap;html=1;" vertex="1" parent="1EVXWLcRG-oIRTYU0K3B-92">
          <mxGeometry y="92" width="140" height="26" as="geometry" />
        </mxCell>
        <mxCell id="gELYl4KcZzuZvH43jFgR-64" value="+ removeTitle()" style="text;strokeColor=none;fillColor=none;align=left;verticalAlign=top;spacingLeft=4;spacingRight=4;overflow=hidden;rotatable=0;points=[[0,0.5],[1,0.5]];portConstraint=eastwest;whiteSpace=wrap;html=1;" vertex="1" parent="1EVXWLcRG-oIRTYU0K3B-92">
          <mxGeometry y="118" width="140" height="26" as="geometry" />
        </mxCell>
        <mxCell id="gELYl4KcZzuZvH43jFgR-65" value="+ save()" style="text;strokeColor=none;fillColor=none;align=left;verticalAlign=top;spacingLeft=4;spacingRight=4;overflow=hidden;rotatable=0;points=[[0,0.5],[1,0.5]];portConstraint=eastwest;whiteSpace=wrap;html=1;" vertex="1" parent="1EVXWLcRG-oIRTYU0K3B-92">
          <mxGeometry y="144" width="140" height="26" as="geometry" />
        </mxCell>
        <mxCell id="gELYl4KcZzuZvH43jFgR-66" value="+&amp;nbsp;&lt;span style=&quot;background-color: initial;&quot;&gt;status()&lt;/span&gt;" style="text;strokeColor=none;fillColor=none;align=left;verticalAlign=top;spacingLeft=4;spacingRight=4;overflow=hidden;rotatable=0;points=[[0,0.5],[1,0.5]];portConstraint=eastwest;whiteSpace=wrap;html=1;" vertex="1" parent="1EVXWLcRG-oIRTYU0K3B-92">
          <mxGeometry y="170" width="140" height="26" as="geometry" />
        </mxCell>
        <mxCell id="gELYl4KcZzuZvH43jFgR-0" value="Services" style="shape=folder;fontStyle=1;spacingTop=10;tabWidth=40;tabHeight=14;tabPosition=left;html=1;whiteSpace=wrap;" vertex="1" parent="WIyWlLk6GJQsqaUBKTNV-1">
          <mxGeometry x="260" y="140" width="140" height="90" as="geometry" />
        </mxCell>
        <mxCell id="gELYl4KcZzuZvH43jFgR-1" style="edgeStyle=orthogonalEdgeStyle;rounded=0;orthogonalLoop=1;jettySize=auto;html=1;entryX=0;entryY=0;entryDx=0;entryDy=52;entryPerimeter=0;exitX=0;exitY=0;exitDx=140;exitDy=33;exitPerimeter=0;" edge="1" parent="WIyWlLk6GJQsqaUBKTNV-1" source="1EVXWLcRG-oIRTYU0K3B-79" target="gELYl4KcZzuZvH43jFgR-0">
          <mxGeometry relative="1" as="geometry">
            <mxPoint x="210" y="322" as="sourcePoint" />
            <mxPoint x="270" y="386" as="targetPoint" />
          </mxGeometry>
        </mxCell>
        <mxCell id="gELYl4KcZzuZvH43jFgR-11" style="edgeStyle=orthogonalEdgeStyle;rounded=0;orthogonalLoop=1;jettySize=auto;html=1;exitX=0.5;exitY=0;exitDx=0;exitDy=0;endArrow=block;endFill=0;" edge="1" parent="WIyWlLk6GJQsqaUBKTNV-1" source="gELYl4KcZzuZvH43jFgR-9" target="1EVXWLcRG-oIRTYU0K3B-73">
          <mxGeometry relative="1" as="geometry" />
        </mxCell>
        <mxCell id="gELYl4KcZzuZvH43jFgR-9" value="&lt;b&gt;API-Client&lt;/b&gt;" style="swimlane;fontStyle=0;childLayout=stackLayout;horizontal=1;startSize=26;fillColor=none;horizontalStack=0;resizeParent=1;resizeParentMax=0;resizeLast=0;collapsible=1;marginBottom=0;whiteSpace=wrap;html=1;" vertex="1" parent="WIyWlLk6GJQsqaUBKTNV-1">
          <mxGeometry x="260" y="600" width="140" height="52" as="geometry" />
        </mxCell>
        <mxCell id="gELYl4KcZzuZvH43jFgR-13" style="edgeStyle=orthogonalEdgeStyle;rounded=0;orthogonalLoop=1;jettySize=auto;html=1;endArrow=block;endFill=0;" edge="1" parent="WIyWlLk6GJQsqaUBKTNV-1" source="gELYl4KcZzuZvH43jFgR-12" target="1EVXWLcRG-oIRTYU0K3B-92">
          <mxGeometry relative="1" as="geometry" />
        </mxCell>
        <mxCell id="gELYl4KcZzuZvH43jFgR-12" value="&lt;b&gt;RESTService&lt;/b&gt;" style="swimlane;fontStyle=0;childLayout=stackLayout;horizontal=1;startSize=26;fillColor=none;horizontalStack=0;resizeParent=1;resizeParentMax=0;resizeLast=0;collapsible=1;marginBottom=0;whiteSpace=wrap;html=1;" vertex="1" parent="WIyWlLk6GJQsqaUBKTNV-1">
          <mxGeometry x="605" y="280" width="140" height="52" as="geometry" />
        </mxCell>
        <mxCell id="gELYl4KcZzuZvH43jFgR-20" style="edgeStyle=orthogonalEdgeStyle;rounded=0;orthogonalLoop=1;jettySize=auto;html=1;endArrow=block;endFill=0;" edge="1" parent="WIyWlLk6GJQsqaUBKTNV-1" source="gELYl4KcZzuZvH43jFgR-14" target="1EVXWLcRG-oIRTYU0K3B-19">
          <mxGeometry relative="1" as="geometry" />
        </mxCell>
        <mxCell id="gELYl4KcZzuZvH43jFgR-49" style="edgeStyle=orthogonalEdgeStyle;rounded=0;orthogonalLoop=1;jettySize=auto;html=1;" edge="1" parent="WIyWlLk6GJQsqaUBKTNV-1" source="gELYl4KcZzuZvH43jFgR-14" target="gELYl4KcZzuZvH43jFgR-15">
          <mxGeometry relative="1" as="geometry">
            <Array as="points">
              <mxPoint x="970" y="272" />
              <mxPoint x="890" y="272" />
            </Array>
          </mxGeometry>
        </mxCell>
        <mxCell id="gELYl4KcZzuZvH43jFgR-14" value="&lt;b&gt;Parser&lt;/b&gt;" style="swimlane;fontStyle=0;childLayout=stackLayout;horizontal=1;startSize=26;fillColor=none;horizontalStack=0;resizeParent=1;resizeParentMax=0;resizeLast=0;collapsible=1;marginBottom=0;whiteSpace=wrap;html=1;" vertex="1" parent="WIyWlLk6GJQsqaUBKTNV-1">
          <mxGeometry x="950" y="324" width="90" height="52" as="geometry" />
        </mxCell>
        <mxCell id="gELYl4KcZzuZvH43jFgR-27" value="-checkInput()" style="text;strokeColor=none;fillColor=none;align=left;verticalAlign=top;spacingLeft=4;spacingRight=4;overflow=hidden;rotatable=0;points=[[0,0.5],[1,0.5]];portConstraint=eastwest;whiteSpace=wrap;html=1;" vertex="1" parent="gELYl4KcZzuZvH43jFgR-14">
          <mxGeometry y="26" width="90" height="26" as="geometry" />
        </mxCell>
        <mxCell id="gELYl4KcZzuZvH43jFgR-15" value="&lt;b&gt;&amp;lt;&amp;lt;interface&amp;gt;&amp;gt;&lt;/b&gt;&lt;div&gt;&lt;b&gt;ISubParser&amp;lt;T&amp;gt;&lt;/b&gt;&lt;/div&gt;" style="swimlane;fontStyle=0;childLayout=stackLayout;horizontal=1;startSize=40;fillColor=none;horizontalStack=0;resizeParent=1;resizeParentMax=0;resizeLast=0;collapsible=1;marginBottom=0;whiteSpace=wrap;html=1;" vertex="1" parent="WIyWlLk6GJQsqaUBKTNV-1">
          <mxGeometry x="820" y="160" width="140" height="66" as="geometry" />
        </mxCell>
        <mxCell id="gELYl4KcZzuZvH43jFgR-24" value="+parse()" style="text;strokeColor=none;fillColor=none;align=left;verticalAlign=top;spacingLeft=4;spacingRight=4;overflow=hidden;rotatable=0;points=[[0,0.5],[1,0.5]];portConstraint=eastwest;whiteSpace=wrap;html=1;" vertex="1" parent="gELYl4KcZzuZvH43jFgR-15">
          <mxGeometry y="40" width="140" height="26" as="geometry" />
        </mxCell>
        <mxCell id="gELYl4KcZzuZvH43jFgR-48" style="edgeStyle=orthogonalEdgeStyle;rounded=0;orthogonalLoop=1;jettySize=auto;html=1;endArrow=block;endFill=0;" edge="1" parent="WIyWlLk6GJQsqaUBKTNV-1" source="gELYl4KcZzuZvH43jFgR-16" target="gELYl4KcZzuZvH43jFgR-15">
          <mxGeometry relative="1" as="geometry">
            <Array as="points">
              <mxPoint x="1000" y="286" />
              <mxPoint x="1000" y="193" />
            </Array>
          </mxGeometry>
        </mxCell>
        <mxCell id="gELYl4KcZzuZvH43jFgR-16" value="&lt;b&gt;GenderParser&lt;/b&gt;" style="swimlane;fontStyle=0;childLayout=stackLayout;horizontal=1;startSize=26;fillColor=none;horizontalStack=0;resizeParent=1;resizeParentMax=0;resizeLast=0;collapsible=1;marginBottom=0;whiteSpace=wrap;html=1;" vertex="1" parent="WIyWlLk6GJQsqaUBKTNV-1">
          <mxGeometry x="1030" y="260" width="90" height="52" as="geometry" />
        </mxCell>
        <mxCell id="gELYl4KcZzuZvH43jFgR-38" value="" style="shape=folder;fontStyle=1;spacingTop=10;tabWidth=40;tabHeight=14;tabPosition=left;html=1;whiteSpace=wrap;labelBackgroundColor=none;" vertex="1" parent="WIyWlLk6GJQsqaUBKTNV-1">
          <mxGeometry x="590" y="125" width="170" height="120" as="geometry" />
        </mxCell>
        <mxCell id="gELYl4KcZzuZvH43jFgR-46" style="edgeStyle=orthogonalEdgeStyle;rounded=0;orthogonalLoop=1;jettySize=auto;html=1;endArrow=block;endFill=0;" edge="1" parent="WIyWlLk6GJQsqaUBKTNV-1" source="gELYl4KcZzuZvH43jFgR-18" target="gELYl4KcZzuZvH43jFgR-15">
          <mxGeometry relative="1" as="geometry">
            <Array as="points">
              <mxPoint x="1000" y="166" />
              <mxPoint x="1000" y="193" />
            </Array>
          </mxGeometry>
        </mxCell>
        <mxCell id="gELYl4KcZzuZvH43jFgR-18" value="&lt;b&gt;TitleParser&lt;/b&gt;" style="swimlane;fontStyle=0;childLayout=stackLayout;horizontal=1;startSize=26;fillColor=none;horizontalStack=0;resizeParent=1;resizeParentMax=0;resizeLast=0;collapsible=1;marginBottom=0;whiteSpace=wrap;html=1;" vertex="1" parent="WIyWlLk6GJQsqaUBKTNV-1">
          <mxGeometry x="1030" y="140" width="90" height="52" as="geometry" />
        </mxCell>
        <mxCell id="gELYl4KcZzuZvH43jFgR-30" value="model" style="shape=folder;fontStyle=1;spacingTop=10;tabWidth=40;tabHeight=14;tabPosition=left;html=1;whiteSpace=wrap;" vertex="1" parent="WIyWlLk6GJQsqaUBKTNV-1">
          <mxGeometry x="940" y="418" width="140" height="90" as="geometry" />
        </mxCell>
        <mxCell id="gELYl4KcZzuZvH43jFgR-41" value="storage" style="text;html=1;align=center;verticalAlign=middle;resizable=0;points=[];autosize=1;strokeColor=none;fillColor=none;" vertex="1" parent="WIyWlLk6GJQsqaUBKTNV-1">
          <mxGeometry x="590" y="140" width="60" height="30" as="geometry" />
        </mxCell>
        <mxCell id="1EVXWLcRG-oIRTYU0K3B-10" value="In Memory&lt;div&gt;Speicher&lt;/div&gt;" style="shape=cylinder3;whiteSpace=wrap;html=1;boundedLbl=1;backgroundOutline=1;size=15;" parent="WIyWlLk6GJQsqaUBKTNV-1" vertex="1">
          <mxGeometry x="680" y="145" width="70" height="90" as="geometry" />
        </mxCell>
        <mxCell id="gELYl4KcZzuZvH43jFgR-44" value="parser" style="text;html=1;align=center;verticalAlign=middle;resizable=0;points=[];autosize=1;strokeColor=none;fillColor=none;" vertex="1" parent="WIyWlLk6GJQsqaUBKTNV-1">
          <mxGeometry x="800" y="130" width="60" height="30" as="geometry" />
        </mxCell>
        <mxCell id="gELYl4KcZzuZvH43jFgR-47" style="edgeStyle=orthogonalEdgeStyle;rounded=0;orthogonalLoop=1;jettySize=auto;html=1;endArrow=block;endFill=0;" edge="1" parent="WIyWlLk6GJQsqaUBKTNV-1" source="gELYl4KcZzuZvH43jFgR-17" target="gELYl4KcZzuZvH43jFgR-15">
          <mxGeometry relative="1" as="geometry">
            <Array as="points">
              <mxPoint x="1000" y="226" />
              <mxPoint x="1000" y="193" />
            </Array>
          </mxGeometry>
        </mxCell>
        <mxCell id="gELYl4KcZzuZvH43jFgR-17" value="&lt;b&gt;NameParser&lt;/b&gt;" style="swimlane;fontStyle=0;childLayout=stackLayout;horizontal=1;startSize=26;fillColor=none;horizontalStack=0;resizeParent=1;resizeParentMax=0;resizeLast=0;collapsible=1;marginBottom=0;whiteSpace=wrap;html=1;" vertex="1" parent="WIyWlLk6GJQsqaUBKTNV-1">
          <mxGeometry x="1030" y="200" width="90" height="52" as="geometry" />
        </mxCell>
        <mxCell id="gELYl4KcZzuZvH43jFgR-51" style="edgeStyle=orthogonalEdgeStyle;rounded=0;orthogonalLoop=1;jettySize=auto;html=1;entryX=0;entryY=0;entryDx=0;entryDy=33;entryPerimeter=0;" edge="1" parent="WIyWlLk6GJQsqaUBKTNV-1" source="gELYl4KcZzuZvH43jFgR-43" target="gELYl4KcZzuZvH43jFgR-30">
          <mxGeometry relative="1" as="geometry">
            <Array as="points">
              <mxPoint x="920" y="451" />
            </Array>
          </mxGeometry>
        </mxCell>
        <mxCell id="gELYl4KcZzuZvH43jFgR-53" style="edgeStyle=orthogonalEdgeStyle;rounded=0;orthogonalLoop=1;jettySize=auto;html=1;entryX=0.005;entryY=0.635;entryDx=0;entryDy=0;entryPerimeter=0;" edge="1" parent="WIyWlLk6GJQsqaUBKTNV-1" source="1EVXWLcRG-oIRTYU0K3B-92" target="gELYl4KcZzuZvH43jFgR-30">
          <mxGeometry relative="1" as="geometry" />
        </mxCell>
        <mxCell id="gELYl4KcZzuZvH43jFgR-54" style="edgeStyle=orthogonalEdgeStyle;rounded=0;orthogonalLoop=1;jettySize=auto;html=1;entryX=-0.003;entryY=0.739;entryDx=0;entryDy=0;entryPerimeter=0;" edge="1" parent="WIyWlLk6GJQsqaUBKTNV-1" source="gELYl4KcZzuZvH43jFgR-12" target="gELYl4KcZzuZvH43jFgR-43">
          <mxGeometry relative="1" as="geometry">
            <Array as="points">
              <mxPoint x="680" y="319" />
            </Array>
          </mxGeometry>
        </mxCell>
        <mxCell id="gELYl4KcZzuZvH43jFgR-55" value="exceptions" style="shape=folder;fontStyle=1;spacingTop=10;tabWidth=40;tabHeight=14;tabPosition=left;html=1;whiteSpace=wrap;" vertex="1" parent="WIyWlLk6GJQsqaUBKTNV-1">
          <mxGeometry x="990" y="534" width="140" height="90" as="geometry" />
        </mxCell>
        <mxCell id="gELYl4KcZzuZvH43jFgR-57" value="+&amp;nbsp;CreateShell()" style="text;strokeColor=none;fillColor=none;align=left;verticalAlign=top;spacingLeft=4;spacingRight=4;overflow=hidden;rotatable=0;points=[[0,0.5],[1,0.5]];portConstraint=eastwest;whiteSpace=wrap;html=1;" vertex="1" parent="WIyWlLk6GJQsqaUBKTNV-1">
          <mxGeometry x="60" y="508" width="140" height="26" as="geometry" />
        </mxCell>
        <mxCell id="gELYl4KcZzuZvH43jFgR-58" value="+&amp;nbsp;OnInitialized()" style="text;strokeColor=none;fillColor=none;align=left;verticalAlign=top;spacingLeft=4;spacingRight=4;overflow=hidden;rotatable=0;points=[[0,0.5],[1,0.5]];portConstraint=eastwest;whiteSpace=wrap;html=1;" vertex="1" parent="WIyWlLk6GJQsqaUBKTNV-1">
          <mxGeometry x="60" y="534" width="140" height="26" as="geometry" />
        </mxCell>
        <mxCell id="gELYl4KcZzuZvH43jFgR-59" value="+&amp;nbsp;RegisterTypes()" style="text;strokeColor=none;fillColor=none;align=left;verticalAlign=top;spacingLeft=4;spacingRight=4;overflow=hidden;rotatable=0;points=[[0,0.5],[1,0.5]];portConstraint=eastwest;whiteSpace=wrap;html=1;" vertex="1" parent="WIyWlLk6GJQsqaUBKTNV-1">
          <mxGeometry x="60" y="560" width="140" height="26" as="geometry" />
        </mxCell>
      </root>
    </mxGraphModel>
  </diagram>
</mxfile>
